{
    "asset" : {
        "generator" : "Khronos glTF Blender I/O v1.5.17",
        "version" : "2.0"
    },
    "scene" : 0,
    "scenes" : [
        {
            "name" : "Scene",
            "nodes" : [
                0
            ]
        }
    ],
    "nodes" : [
        {
            "mesh" : 0,
            "name" : "fence",
            "scale" : [
                0.19999998807907104,
                1.5695264339447021,
                0.07000001519918442
            ],
            "translation" : [
                -5.319018840789795,
                -2.4881491661071777,
                11.64008903503418
            ]
        }
    ],
    "meshes" : [
        {
            "name" : "Cube.001",
            "primitives" : [
                {
                    "attributes" : {
                        "POSITION" : 0,
                        "NORMAL" : 1,
                        "TEXCOORD_0" : 2
                    },
                    "indices" : 3
                }
            ]
        }
    ],
    "accessors" : [
        {
            "bufferView" : 0,
            "componentType" : 5126,
            "count" : 2016,
            "max" : [
                55.40258026123047,
                1.4956105947494507,
                -95.96781158447266
            ],
            "min" : [
                -1.3130626678466797,
                -0.6676046848297119,
                -98.97921752929688
            ],
            "type" : "VEC3"
        },
        {
            "bufferView" : 1,
            "componentType" : 5126,
            "count" : 2016,
            "type" : "VEC3"
        },
        {
            "bufferView" : 2,
            "componentType" : 5126,
            "count" : 2016,
            "type" : "VEC2"
        },
        {
            "bufferView" : 3,
            "componentType" : 5123,
            "count" : 2820,
            "type" : "SCALAR"
        }
    ],
    "bufferViews" : [
        {
            "buffer" : 0,
            "byteLength" : 24192,
            "byteOffset" : 0
        },
        {
            "buffer" : 0,
            "byteLength" : 24192,
            "byteOffset" : 24192
        },
        {
            "buffer" : 0,
            "byteLength" : 16128,
            "byteOffset" : 48384
        },
        {
            "buffer" : 0,
            "byteLength" : 5640,
            "byteOffset" : 64512
        }
    ],
    "buffers" : [
        {
            "byteLength" : 70152,
            "uri" : "data:application/octet-stream;base64,"
        }
    ]
}
